<svg xmlns="http://www.w3.org/2000/svg" width="425" height="140" viewBox="0 0 425 140" class="mkdf-paws"><path style="fill:none;stroke:rgba(0,0,0,.18);  stroke-width: 1.8;  stroke-miterlimit: 10" d="M406.7 11.8c0-1.3 1.5-2.5 2.8-2 0.3 0.1 0.5 0.3 0.8 0.4 0.9 0.6 1.8 1.2 2.8 1.8 0.8 0.5 1.5 1 2.2 1.6 0.6 0.6 1.1 1.3 1 2.1 -0.1 1.1-1 1.8-1.9 2.5 -0.8 0.6-1.7 1.2-2.5 1.8 -0.8 0.5-1.6 1.1-2.5 1.2 -0.9 0.1-2-0.5-2.1-1.4 -0.1-0.9 0.6-1.6 1-2.4C409.3 15 406.8 13.9 406.7 11.8z"/><path style="fill:none;  stroke: rgba(0,0,0,.18);  stroke-width: 1.8;  stroke-miterlimit: 10" d="M413.2 10.3c0 0.2 0.1 0.5 0.3 0.6 0.2 0.2 0.4 0.3 0.6 0.4 0.8 0.2 1.6 0.2 2.3-0.2 0.2-0.1 0.4-0.2 0.5-0.3 0.1-0.1 0.3-0.2 0.4-0.3 0.9-1-0.1-2.6-1.4-2.6C414.7 7.8 413.1 8.9 413.2 10.3z"/><path style="fill:none;  stroke: rgba(0,0,0,.18);  stroke-width: 1.8;  stroke-miterlimit: 10" d="M417.9 12.9c-0.4 0.4-0.7 1-0.4 1.4 0.1 0.1 0.2 0.3 0.3 0.4 0.5 0.5 1.2 0.8 1.9 0.9 0.7 0.1 1.5-0.1 2-0.7 0.7-0.9 0.3-2.2-0.6-2.7C420.1 11.7 418.7 12.2 417.9 12.9z"/><path style="fill:none;  stroke: rgba(0,0,0,.18);  stroke-width: 1.8;  stroke-miterlimit: 10" d="M419.8 16.8c-0.5-0.2-1-0.3-1.5-0.2 -0.5 0.1-1 0.3-1.3 0.7 -0.3 0.5-0.2 1.3 0.1 1.8 0.3 0.5 0.9 0.9 1.5 1.1 0.9 0.4 2.7 0.4 2.9-1C421.7 18 420.8 17.2 419.8 16.8z"/><path style="fill:none;  stroke: rgba(0,0,0,.18);  stroke-width: 1.8;  stroke-miterlimit: 10" d="M417.1 23c-0.4 0.2-0.8 0.3-1.2 0.2 -1-0.1-2-0.6-2.5-1.5 -0.5-0.8-0.3-2.1 0.7-2.3C415.5 19.2 419.2 21.8 417.1 23z"/><path style="fill:none;  stroke: rgba(0,0,0,.18);  stroke-width: 1.8;  stroke-miterlimit: 10" d="M384.5 24.5c0.8 0.3 1.4 0.9 2.2 1.4 0.9 0.6 2 1 2.8 1.7 0.8 0.7 1.4 1.9 0.9 2.9 -0.2 0.3-0.5 0.6-0.7 0.8 -1 0.9-2 1.9-3 2.8 -1.1 1-2.7 1.7-3.9 0.4 -0.9-1-0.3-2.6 0.1-3.6 0.3-0.7 0.4-1.5 0-2.1 -0.2-0.2-0.4-0.4-0.6-0.5C380.2 26.7 382.2 23.6 384.5 24.5z"/><path style="fill:none;  stroke: rgba(0,0,0,.18);  stroke-width: 1.8;  stroke-miterlimit: 10" d="M388 23.3c-0.4 0.4-0.7 1-0.5 1.5 0.1 0.3 0.4 0.5 0.7 0.7 1.5 0.9 5.1 0.9 4.6-1.7C392.3 21.7 389.1 22.1 388 23.3z"/><path style="fill:none;  stroke: rgba(0,0,0,.18);  stroke-width: 1.8;  stroke-miterlimit: 10" d="M394.3 26.1c-0.8 0.2-1.5 1-1.5 1.8 0 0.2 0 0.3 0.1 0.4 0.1 0.2 0.3 0.4 0.5 0.5 0.8 0.5 1.7 0.7 2.6 0.6 0.5 0 1.1-0.2 1.5-0.5 0.4-0.4 0.6-1 0.5-1.5C397.5 25.9 395.6 25.7 394.3 26.1z"/><path style="fill:none;  stroke: rgba(0,0,0,.18);  stroke-width: 1.8;  stroke-miterlimit: 10" d="M395.4 30.4c-0.7-0.2-1.5-0.3-2.2-0.1 -0.7 0.3-1.2 1-1.1 1.7 0.1 0.6 0.6 1.1 1.2 1.5 0.7 0.5 1.4 0.9 2.3 0.9 0.8 0 1.7-0.6 1.8-1.4C397.5 31.5 396.7 30.8 395.4 30.4z"/><path style="fill:none;  stroke: rgba(0,0,0,.18);  stroke-width: 1.8;  stroke-miterlimit: 10" d="M389.5 33.9c-0.5 0-1.1 0.3-1.4 0.7 -1.1 1.7 1.8 3 3.1 2.9 1.6-0.1 2.1-1.7 1-2.8C391.6 34.1 390.4 33.8 389.5 33.9z"/><path style="fill:none;  stroke: rgba(0,0,0,.18);  stroke-width: 1.8;  stroke-miterlimit: 10" d="M363.3 9.6c-0.3-1.3 1-2.7 2.4-2.5 0.3 0.1 0.6 0.2 0.9 0.3 1 0.4 2 0.8 3 1.2 0.8 0.3 1.7 0.7 2.4 1.2 0.7 0.4 1.3 1.1 1.4 1.9 0.1 1.1-0.7 2-1.4 2.8 -0.7 0.7-1.4 1.5-2.1 2.2 -0.6 0.7-1.3 1.4-2.2 1.6 -0.9 0.3-2-0.1-2.3-1 -0.3-0.8 0.3-1.6 0.5-2.5C366.4 12.4 363.7 11.7 363.3 9.6z"/><path style="fill:none;  stroke: rgba(0,0,0,.18);  stroke-width: 1.8;  stroke-miterlimit: 10" d="M369.4 7c0.1 0.2 0.2 0.4 0.4 0.6 0.2 0.2 0.4 0.2 0.7 0.3 0.8 0.1 1.6-0.1 2.2-0.6 0.2-0.1 0.3-0.3 0.5-0.4 0.1-0.1 0.2-0.2 0.3-0.4 0.7-1.2-0.6-2.5-1.8-2.3C370.4 4.3 369 5.6 369.4 7z"/><path style="fill:none;  stroke: rgba(0,0,0,.18);  stroke-width: 1.8;  stroke-miterlimit: 10" d="M374.5 8.7c-0.3 0.4-0.5 1.1-0.2 1.5 0.1 0.1 0.2 0.2 0.4 0.3 0.6 0.4 1.3 0.6 2.1 0.6s1.4-0.4 1.8-1c0.6-1-0.1-2.2-1.1-2.6C376.4 7.1 375.1 7.9 374.5 8.7z"/><path style="fill:none;  stroke: rgba(0,0,0,.18);  stroke-width: 1.8;  stroke-miterlimit: 10" d="M377.1 12.2c-0.5-0.1-1-0.1-1.5 0 -0.5 0.1-0.9 0.5-1.1 0.9 -0.2 0.6 0 1.3 0.4 1.7 0.4 0.5 1 0.7 1.7 0.8 1 0.2 2.7-0.1 2.7-1.5C379.2 13.1 378.1 12.4 377.1 12.2z"/><path style="fill:none;  stroke: rgba(0,0,0,.18);  stroke-width: 1.8;  stroke-miterlimit: 10" d="M375.5 18.8c-0.3 0.3-0.7 0.4-1.1 0.5 -1 0.1-2.1-0.3-2.7-1 -0.6-0.7-0.7-2 0.3-2.4C373.3 15.4 377.3 17.2 375.5 18.8z"/><path style="fill:none;  stroke: rgba(0,0,0,.18);  stroke-width: 1.8;  stroke-miterlimit: 10" d="M343.7 26.2c0.8 0.2 1.6 0.7 2.4 1 1 0.4 2.1 0.6 3 1.1 0.9 0.5 1.7 1.7 1.4 2.7 -0.1 0.4-0.3 0.7-0.6 1 -0.8 1.1-1.7 2.2-2.5 3.3 -0.9 1.2-2.4 2.2-3.8 1.1 -1.1-0.8-0.8-2.5-0.6-3.6 0.1-0.7 0.1-1.6-0.4-2 -0.2-0.2-0.5-0.3-0.7-0.4C339.9 29.1 341.3 25.7 343.7 26.2z"/><path style="fill:none;  stroke: rgba(0,0,0,.18);  stroke-width: 1.8;  stroke-miterlimit: 10" d="M346.9 24.3c-0.3 0.5-0.5 1.1-0.2 1.6 0.2 0.3 0.5 0.5 0.8 0.6 1.6 0.6 5.2 0 4.2-2.5C350.9 22 347.8 23 346.9 24.3z"/><path style="fill:none;  stroke: rgba(0,0,0,.18);  stroke-width: 1.8;  stroke-miterlimit: 10" d="M353.7 26c-0.7 0.4-1.3 1.2-1.1 2 0 0.1 0.1 0.3 0.2 0.4 0.1 0.2 0.4 0.3 0.6 0.4 0.8 0.3 1.8 0.4 2.7 0.1 0.5-0.1 1.1-0.4 1.4-0.8 0.3-0.4 0.5-1.1 0.2-1.5C356.7 25.2 354.8 25.3 353.7 26z"/><path style="fill:none;  stroke: rgba(0,0,0,.18);  stroke-width: 1.8;  stroke-miterlimit: 10" d="M355.5 30c-0.7-0.1-1.5-0.1-2.1 0.3 -0.6 0.4-1 1.2-0.8 1.9 0.2 0.6 0.8 1 1.4 1.2 0.7 0.3 1.6 0.6 2.4 0.4 0.8-0.2 1.6-0.9 1.5-1.7C357.7 30.7 356.8 30.2 355.5 30z"/><path style="fill:none;  stroke: rgba(0,0,0,.18);  stroke-width: 1.8;  stroke-miterlimit: 10" d="M350.4 34.5c-0.5 0.1-1 0.4-1.3 0.9 -0.8 1.9 2.3 2.6 3.6 2.3 1.5-0.4 1.7-2 0.5-2.9C352.4 34.3 351.2 34.3 350.4 34.5z"/><path style="fill:none;  stroke: rgba(0,0,0,.18);  stroke-width: 1.8;  stroke-miterlimit: 10" d="M318.7 24.4c-0.9-1-0.4-2.9 0.8-3.3 0.3-0.1 0.6-0.1 0.9-0.2 1.1-0.1 2.2-0.3 3.3-0.4 0.9-0.1 1.8-0.2 2.7-0.2 0.8 0.1 1.7 0.3 2.2 0.9 0.6 0.8 0.4 2.1 0.2 3.1 -0.3 1-0.5 2-0.8 3 -0.2 0.9-0.5 1.8-1.1 2.5s-1.8 0.9-2.5 0.3c-0.6-0.6-0.5-1.6-0.8-2.4C322.8 25.3 320.1 26 318.7 24.4z"/><path style="fill:none;  stroke: rgba(0,0,0,.18);  stroke-width: 1.8;  stroke-miterlimit: 10" d="M322.7 19.1c0.2 0.2 0.4 0.3 0.6 0.3 0.2 0 0.5 0 0.7-0.1 0.7-0.3 1.3-0.9 1.6-1.7 0.1-0.2 0.1-0.4 0.2-0.6 0-0.2 0.1-0.3 0.1-0.5 0-1.4-1.8-1.9-2.7-1.1C322.2 16.2 321.7 18.1 322.7 19.1z"/><path style="fill:none;  stroke: rgba(0,0,0,.18);  stroke-width: 1.8;  stroke-miterlimit: 10" d="M328 18c-0.1 0.5 0.1 1.2 0.6 1.4 0.1 0.1 0.3 0.1 0.5 0.1 0.7 0 1.5-0.1 2.1-0.5s1-1.1 1-1.8c0-1.1-1.2-1.9-2.2-1.7C328.9 15.7 328.1 17 328 18z"/><path style="fill:none;  stroke: rgba(0,0,0,.18);  stroke-width: 1.8;  stroke-miterlimit: 10" d="M331.9 19.8c-0.5 0.2-0.9 0.4-1.3 0.8 -0.3 0.4-0.6 0.9-0.5 1.4 0.1 0.6 0.6 1.1 1.2 1.3 0.6 0.2 1.3 0.1 1.8-0.1 0.9-0.3 2.3-1.5 1.6-2.6C334.2 19.5 332.9 19.4 331.9 19.8z"/><path style="fill:none;  stroke: rgba(0,0,0,.18);  stroke-width: 1.8;  stroke-miterlimit: 10" d="M333.9 26.3c-0.1 0.4-0.4 0.7-0.8 1 -0.8 0.6-1.9 0.8-2.9 0.5 -0.9-0.3-1.6-1.4-0.9-2.2C330.2 24.4 334.7 24 333.9 26.3z"/><path style="fill:none;  stroke: rgba(0,0,0,.18);  stroke-width: 1.8;  stroke-miterlimit: 10" d="M309.9 48.7c0.8-0.3 1.7-0.2 2.6-0.3 1.1-0.1 2.1-0.5 3.2-0.5 1.1 0 2.3 0.6 2.5 1.6 0.1 0.4 0 0.7 0 1.1 -0.2 1.4-0.3 2.7-0.5 4.1 -0.2 1.5-1 3.1-2.7 2.9 -1.3-0.2-1.9-1.8-2.3-2.8 -0.2-0.7-0.6-1.4-1.4-1.6 -0.3-0.1-0.5 0-0.8 0C308.1 53.1 307.6 49.4 309.9 48.7z"/><path style="fill:none;  stroke: rgba(0,0,0,.18);  stroke-width: 1.8;  stroke-miterlimit: 10" d="M311.8 45.4c0 0.6 0.1 1.2 0.6 1.5 0.3 0.2 0.7 0.1 1 0.1 1.7-0.3 4.5-2.6 2.4-4.3C314.1 41.4 311.9 43.8 311.8 45.4z"/><path style="fill:none;  stroke: rgba(0,0,0,.18);  stroke-width: 1.8;  stroke-miterlimit: 10" d="M318.5 43.4c-0.4 0.7-0.5 1.7 0 2.3 0.1 0.1 0.2 0.2 0.3 0.3 0.2 0.1 0.5 0.1 0.7 0 0.9-0.2 1.7-0.6 2.4-1.2 0.4-0.4 0.7-0.9 0.8-1.4 0.1-0.5-0.1-1.2-0.6-1.4C320.8 41.3 319.2 42.3 318.5 43.4z"/><path style="fill:none;  stroke: rgba(0,0,0,.18);  stroke-width: 1.8;  stroke-miterlimit: 10" d="M322 46c-0.7 0.3-1.3 0.7-1.7 1.4 -0.3 0.7-0.3 1.6 0.3 2 0.5 0.4 1.2 0.4 1.8 0.4 0.8-0.1 1.7-0.3 2.3-0.8s0.9-1.5 0.4-2.2C324.4 45.5 323.3 45.5 322 46z"/><path style="fill:none;  stroke: rgba(0,0,0,.18);  stroke-width: 1.8;  stroke-miterlimit: 10" d="M319.8 52.5c-0.4 0.4-0.7 0.9-0.6 1.5 0.2 2.1 3.3 1.1 4.3 0.2 1.1-1.1 0.5-2.6-1-2.7C321.6 51.3 320.5 51.9 319.8 52.5z"/><path style="fill:none;  stroke: rgba(0,0,0,.18);  stroke-width: 1.8;  stroke-miterlimit: 10" d="M285.3 51.7c-1-0.9-0.8-2.8 0.3-3.4 0.3-0.1 0.6-0.2 0.8-0.3 1.1-0.3 2.1-0.6 3.2-0.9 0.9-0.2 1.7-0.5 2.6-0.6 0.8-0.1 1.7 0 2.3 0.6 0.8 0.7 0.7 2 0.6 3 -0.1 1-0.2 2.1-0.3 3.1 -0.1 0.9-0.2 1.9-0.7 2.6 -0.5 0.8-1.7 1.2-2.4 0.6 -0.7-0.5-0.8-1.5-1.1-2.3C289.5 51.9 286.9 53.1 285.3 51.7z"/><path style="fill:none;  stroke: rgba(0,0,0,.18);  stroke-width: 1.8;  stroke-miterlimit: 10" d="M288.5 45.9c0.2 0.1 0.4 0.2 0.6 0.2 0.3 0 0.5-0.1 0.7-0.2 0.7-0.4 1.2-1.1 1.4-1.9 0.1-0.2 0.1-0.4 0.1-0.6 0-0.2 0-0.3 0-0.5 -0.2-1.4-2-1.6-2.9-0.7C287.6 43.1 287.4 45.1 288.5 45.9z"/><path style="fill:none;  stroke: rgba(0,0,0,.18);  stroke-width: 1.8;  stroke-miterlimit: 10" d="M293.6 44c0 0.5 0.3 1.1 0.8 1.3 0.2 0 0.3 0 0.5 0 0.7-0.1 1.4-0.3 2-0.8 0.5-0.5 0.9-1.2 0.8-1.9 -0.2-1.1-1.4-1.7-2.4-1.3C294.1 41.6 293.5 43 293.6 44z"/><path style="fill:none;  stroke: rgba(0,0,0,.18);  stroke-width: 1.8;  stroke-miterlimit: 10" d="M297.7 45.2c-0.4 0.2-0.9 0.5-1.1 0.9 -0.3 0.4-0.4 0.9-0.3 1.4 0.2 0.6 0.8 1 1.4 1.1 0.6 0.1 1.3-0.1 1.8-0.4 0.9-0.5 2.1-1.8 1.2-2.8C299.9 44.6 298.6 44.7 297.7 45.2z"/><path style="fill:none;  stroke: rgba(0,0,0,.18);  stroke-width: 1.8;  stroke-miterlimit: 10" d="M300.6 51.4c-0.1 0.4-0.3 0.8-0.6 1.1 -0.7 0.7-1.8 1.1-2.8 0.9 -0.9-0.2-1.7-1.1-1.2-2.1C296.7 50.1 301.1 49 300.6 51.4z"/><path style="fill:none;  stroke: rgba(0,0,0,.18);  stroke-width: 1.8;  stroke-miterlimit: 10" d="M280.1 76.9c0.8-0.4 1.7-0.5 2.5-0.7 1-0.3 2-0.8 3.1-1 1.1-0.2 2.4 0.2 2.7 1.3 0.1 0.4 0.1 0.7 0.1 1.1 0 1.4 0 2.8 0.1 4.1 0 1.5-0.5 3.2-2.3 3.2 -1.3 0-2.1-1.5-2.6-2.5 -0.3-0.6-0.8-1.3-1.6-1.4 -0.3 0-0.5 0.1-0.8 0.1C278.9 81.5 277.9 78 280.1 76.9z"/><path style="fill:none;  stroke: rgba(0,0,0,.18);  stroke-width: 1.8;  stroke-miterlimit: 10" d="M281.4 73.5c0 0.6 0.3 1.2 0.8 1.4 0.3 0.1 0.7 0.1 1 0 1.6-0.5 4.1-3.2 1.8-4.6C283.1 69.2 281.3 71.9 281.4 73.5z"/><path style="fill:none;  stroke: rgba(0,0,0,.18);  stroke-width: 1.8;  stroke-miterlimit: 10" d="M287.8 70.6c-0.3 0.8-0.3 1.7 0.4 2.3 0.1 0.1 0.2 0.2 0.4 0.2 0.2 0.1 0.5 0 0.7-0.1 0.9-0.3 1.6-0.8 2.2-1.5 0.3-0.4 0.6-1 0.6-1.5 0-0.6-0.3-1.1-0.8-1.3C289.7 68.1 288.3 69.3 287.8 70.6z"/><path style="fill:none;  stroke: rgba(0,0,0,.18);  stroke-width: 1.8;  stroke-miterlimit: 10" d="M291.7 72.6c-0.6 0.4-1.2 0.9-1.5 1.6 -0.2 0.7-0.1 1.6 0.6 2 0.5 0.3 1.2 0.3 1.9 0.1 0.8-0.2 1.6-0.5 2.2-1.1 0.5-0.6 0.7-1.7 0.1-2.3C293.9 71.8 292.9 71.9 291.7 72.6z"/><path style="fill:none;  stroke: rgba(0,0,0,.18);  stroke-width: 1.8;  stroke-miterlimit: 10" d="M290.4 79.3c-0.3 0.4-0.5 1-0.4 1.5 0.5 2 3.4 0.6 4.2-0.4 1-1.2 0.1-2.6-1.4-2.6C291.9 77.9 291 78.6 290.4 79.3z"/><path style="fill:none;  stroke: rgba(0,0,0,.18);  stroke-width: 1.8;  stroke-miterlimit: 10" d="M254.1 72.2c-0.7-1.2 0.1-2.9 1.5-3.1 0.3 0 0.6 0 0.9 0 1.1 0.1 2.2 0.2 3.3 0.2 0.9 0.1 1.8 0.1 2.7 0.4 0.8 0.2 1.6 0.6 1.9 1.3 0.5 1 0 2.1-0.5 3.1 -0.4 0.9-0.9 1.9-1.3 2.8 -0.4 0.8-0.8 1.7-1.6 2.2 -0.8 0.5-2 0.5-2.5-0.2 -0.5-0.7-0.2-1.7-0.3-2.5C257.9 73.8 255.1 74 254.1 72.2z"/><path style="fill:none;  stroke: rgba(0,0,0,.18);  stroke-width: 1.8;  stroke-miterlimit: 10" d="M259.1 67.8c0.1 0.2 0.3 0.4 0.5 0.4 0.2 0.1 0.5 0.1 0.7 0 0.8-0.2 1.5-0.6 1.9-1.3 0.1-0.2 0.2-0.4 0.3-0.6 0.1-0.2 0.1-0.3 0.2-0.5 0.3-1.3-1.4-2.2-2.4-1.6C259.2 64.9 258.3 66.6 259.1 67.8z"/><path style="fill:none;  stroke: rgba(0,0,0,.18);  stroke-width: 1.8;  stroke-miterlimit: 10" d="M264.4 67.8c-0.2 0.5-0.1 1.2 0.3 1.4 0.1 0.1 0.3 0.1 0.4 0.2 0.7 0.2 1.5 0.2 2.1-0.1 0.7-0.3 1.2-0.9 1.4-1.6 0.2-1.1-0.8-2.1-1.8-2.1C265.8 65.6 264.7 66.8 264.4 67.8z"/><path style="fill:none;  stroke: rgba(0,0,0,.18);  stroke-width: 1.8;  stroke-miterlimit: 10" d="M268 70.3c-0.5 0.1-1 0.2-1.4 0.5 -0.4 0.3-0.7 0.7-0.8 1.2 0 0.6 0.4 1.2 0.9 1.5 0.6 0.3 1.2 0.3 1.8 0.2 1-0.1 2.6-1 2.1-2.3C270.2 70.5 269 70.2 268 70.3z"/><path style="fill:none;  stroke: rgba(0,0,0,.18);  stroke-width: 1.8;  stroke-miterlimit: 10" d="M268.6 77.1c-0.2 0.4-0.6 0.6-0.9 0.8 -0.9 0.4-2 0.4-2.9-0.1 -0.8-0.5-1.3-1.7-0.4-2.4C265.3 74.5 269.8 75 268.6 77.1z"/><path style="fill:none;  stroke: rgba(0,0,0,.18);  stroke-width: 1.8;  stroke-miterlimit: 10" d="M240.6 94.2c0.9-0.1 1.7 0.1 2.6 0.2 1.1 0.1 2.2-0.1 3.2 0.1 1.1 0.2 2.1 1 2.1 2.1 0 0.4-0.1 0.7-0.2 1.1 -0.4 1.3-0.9 2.6-1.3 3.9 -0.5 1.4-1.6 2.8-3.3 2.3 -1.3-0.4-1.5-2.1-1.7-3.2 -0.1-0.7-0.3-1.5-1-1.8 -0.2-0.1-0.5-0.1-0.8-0.2C238 98.1 238.2 94.4 240.6 94.2z"/><path style="fill:none;  stroke: rgba(0,0,0,.18);  stroke-width: 1.8;  stroke-miterlimit: 10" d="M243.1 91.4c-0.1 0.5-0.2 1.2 0.3 1.6 0.3 0.2 0.6 0.3 0.9 0.3 1.7 0.1 4.9-1.6 3.2-3.7C246.2 87.9 243.5 89.8 243.1 91.4z"/><path style="fill:none;  stroke: rgba(0,0,0,.18);  stroke-width: 1.8;  stroke-miterlimit: 10" d="M250 90.8c-0.6 0.6-0.8 1.5-0.4 2.3 0.1 0.1 0.2 0.3 0.3 0.3 0.2 0.1 0.4 0.2 0.7 0.2 0.9 0 1.8-0.2 2.6-0.7 0.5-0.3 0.9-0.7 1.1-1.2 0.2-0.5 0.1-1.2-0.3-1.5C252.7 89.1 251 89.8 250 90.8z"/><path style="fill:none;  stroke: rgba(0,0,0,.18);  stroke-width: 1.8;  stroke-miterlimit: 10" d="M253 94c-0.7 0.1-1.5 0.4-1.9 1 -0.5 0.6-0.6 1.5-0.1 2 0.4 0.5 1.1 0.7 1.7 0.7 0.8 0.1 1.7 0.1 2.4-0.3 0.7-0.4 1.2-1.3 0.9-2.1C255.4 94 254.4 93.8 253 94z"/><path style="fill:none;  stroke: rgba(0,0,0,.18);  stroke-width: 1.8;  stroke-miterlimit: 10" d="M249.6 99.9c-0.5 0.3-0.8 0.8-0.9 1.3 -0.2 2.1 3 1.8 4.1 1.1 1.3-0.8 1-2.4-0.4-2.9C251.5 99.1 250.3 99.4 249.6 99.9z"/><path style="fill:none;  stroke: rgba(0,0,0,.18);  stroke-width: 1.8;  stroke-miterlimit: 10" d="M218.6 78.4c-0.1-1.3 1.4-2.5 2.7-2.1 0.3 0.1 0.5 0.2 0.8 0.4 0.9 0.6 1.9 1.1 2.8 1.7 0.8 0.5 1.6 0.9 2.2 1.5 0.6 0.5 1.1 1.3 1.1 2.1 0 1.1-0.9 1.9-1.8 2.5 -0.8 0.6-1.6 1.3-2.4 1.9 -0.7 0.6-1.5 1.2-2.4 1.3 -0.9 0.1-2-0.4-2.1-1.3 -0.1-0.9 0.5-1.6 0.8-2.4C221.3 81.6 218.8 80.5 218.6 78.4z"/><path style="fill:none;  stroke: rgba(0,0,0,.18);  stroke-width: 1.8;  stroke-miterlimit: 10" d="M225 76.7c0 0.2 0.1 0.5 0.3 0.6 0.2 0.2 0.4 0.3 0.7 0.3 0.8 0.2 1.6 0.1 2.3-0.3 0.2-0.1 0.4-0.2 0.5-0.4 0.1-0.1 0.3-0.2 0.4-0.3 0.9-1.1-0.2-2.6-1.5-2.6C226.4 74.1 224.8 75.3 225 76.7z"/><path style="fill:none;  stroke: rgba(0,0,0,.18);  stroke-width: 1.8;  stroke-miterlimit: 10" d="M229.9 79c-0.4 0.4-0.6 1-0.4 1.4 0.1 0.1 0.2 0.2 0.3 0.3 0.6 0.5 1.2 0.8 2 0.8 0.7 0.1 1.5-0.2 1.9-0.8 0.7-0.9 0.2-2.2-0.7-2.7C232 77.7 230.5 78.3 229.9 79z"/><path style="fill:none;  stroke: rgba(0,0,0,.18);  stroke-width: 1.8;  stroke-miterlimit: 10" d="M231.9 82.9c-0.5-0.1-1-0.2-1.5-0.2 -0.5 0.1-1 0.3-1.2 0.8 -0.3 0.5-0.2 1.3 0.2 1.8 0.4 0.5 0.9 0.8 1.5 1 1 0.3 2.7 0.3 2.9-1.1C233.9 84 232.9 83.2 231.9 82.9z"/><path style="fill:none;  stroke: rgba(0,0,0,.18);  stroke-width: 1.8;  stroke-miterlimit: 10" d="M229.5 89.2c-0.3 0.2-0.8 0.3-1.2 0.3 -1 0-2-0.5-2.6-1.4 -0.5-0.8-0.4-2.1 0.6-2.3C227.7 85.5 231.5 87.9 229.5 89.2z"/><path style="fill:none;  stroke: rgba(0,0,0,.18);  stroke-width: 1.8;  stroke-miterlimit: 10" d="M196.9 92.1c0.8 0.3 1.5 0.9 2.2 1.3 0.9 0.6 2 0.9 2.9 1.6 0.9 0.7 1.5 1.9 1 2.9 -0.2 0.3-0.4 0.6-0.7 0.9 -1 1-1.9 2-2.9 2.9 -1.1 1.1-2.7 1.9-3.9 0.6 -0.9-0.9-0.4-2.6-0.1-3.6 0.2-0.7 0.4-1.5-0.1-2.1 -0.2-0.2-0.4-0.3-0.6-0.5C192.8 94.5 194.6 91.3 196.9 92.1z"/><path style="fill:none;  stroke: rgba(0,0,0,.18);  stroke-width: 1.8;  stroke-miterlimit: 10" d="M200.4 90.7c-0.4 0.4-0.7 1-0.5 1.5 0.1 0.3 0.4 0.5 0.7 0.7 1.5 0.8 5.1 0.7 4.5-1.9C204.6 89 201.4 89.5 200.4 90.7z"/><path style="fill:none;  stroke: rgba(0,0,0,.18);  stroke-width: 1.8;  stroke-miterlimit: 10" d="M206.8 93.3c-0.8 0.3-1.4 1-1.4 1.8 0 0.2 0 0.3 0.1 0.4 0.1 0.2 0.3 0.3 0.5 0.4 0.8 0.4 1.7 0.6 2.6 0.5 0.5-0.1 1.1-0.2 1.5-0.6 0.4-0.4 0.6-1 0.4-1.5C210 93 208.1 92.8 206.8 93.3z"/><path style="fill:none;  stroke: rgba(0,0,0,.18);  stroke-width: 1.8;  stroke-miterlimit: 10" d="M208.1 97.5c-0.7-0.2-1.5-0.3-2.2 0 -0.7 0.3-1.2 1.1-1 1.8 0.1 0.6 0.7 1.1 1.2 1.4 0.7 0.4 1.5 0.8 2.3 0.8 0.8 0 1.7-0.7 1.7-1.5C210.2 98.5 209.4 97.9 208.1 97.5z"/><path style="fill:none;  stroke: rgba(0,0,0,.18);  stroke-width: 1.8;  stroke-miterlimit: 10" d="M202.4 101.3c-0.5 0.1-1.1 0.3-1.4 0.8 -1.1 1.8 1.9 2.9 3.2 2.8 1.6-0.2 2-1.7 0.9-2.8C204.5 101.4 203.3 101.2 202.4 101.3z"/><path style="fill:none;  stroke: rgba(0,0,0,.18);  stroke-width: 1.8;  stroke-miterlimit: 10" d="M182.2 68.8c0.3-1.3 2.1-2 3.2-1.2 0.2 0.2 0.4 0.4 0.6 0.6 0.7 0.8 1.4 1.6 2.2 2.5 0.6 0.7 1.2 1.4 1.6 2.1 0.4 0.7 0.7 1.5 0.4 2.3 -0.3 1-1.5 1.5-2.5 1.9 -1 0.3-1.9 0.7-2.9 1 -0.9 0.3-1.8 0.6-2.7 0.5s-1.8-1-1.6-1.9c0.1-0.8 1-1.3 1.6-2C183.8 72.7 181.7 70.9 182.2 68.8z"/><path style="fill:none;  stroke: rgba(0,0,0,.18);  stroke-width: 1.8;  stroke-miterlimit: 10" d="M188.9 69.2c0 0.2 0 0.5 0.1 0.7 0.1 0.2 0.3 0.4 0.5 0.5 0.7 0.4 1.5 0.6 2.3 0.4 0.2 0 0.4-0.1 0.6-0.2 0.2-0.1 0.3-0.1 0.5-0.2 1.2-0.7 0.6-2.5-0.6-2.9C191 67.2 189.1 67.8 188.9 69.2z"/><path style="fill:none;  stroke: rgba(0,0,0,.18);  stroke-width: 1.8;  stroke-miterlimit: 10" d="M192.7 73c-0.5 0.3-0.9 0.7-0.8 1.3 0 0.2 0.1 0.3 0.2 0.4 0.4 0.6 0.9 1.1 1.6 1.4 0.7 0.3 1.5 0.3 2.1-0.1 0.9-0.6 0.9-2 0.1-2.8C195.2 72.4 193.6 72.5 192.7 73z"/><path style="fill:none;  stroke: rgba(0,0,0,.18);  stroke-width: 1.8;  stroke-miterlimit: 10" d="M193.5 77.3c-0.4-0.3-0.9-0.5-1.3-0.6s-1 0-1.4 0.4c-0.5 0.4-0.6 1.1-0.4 1.7 0.2 0.6 0.6 1.1 1.1 1.5 0.8 0.6 2.5 1.1 3.1-0.2C195 79 194.3 77.9 193.5 77.3z"/><path style="fill:none;  stroke: rgba(0,0,0,.18);  stroke-width: 1.8;  stroke-miterlimit: 10" d="M189.2 82.5c-0.4 0.1-0.8 0-1.2-0.1 -0.9-0.3-1.7-1.1-2-2.1 -0.3-0.9 0.3-2.1 1.3-2C188.6 78.4 191.5 81.9 189.2 82.5z"/><path style="fill:none;  stroke: rgba(0,0,0,.18);  stroke-width: 1.8;  stroke-miterlimit: 10" d="M157.3 75c0.7 0.5 1.1 1.3 1.7 2 0.7 0.8 1.6 1.5 2.2 2.4 0.6 0.9 0.8 2.2 0 3 -0.3 0.3-0.6 0.4-0.9 0.6 -1.2 0.6-2.5 1.2-3.7 1.9 -1.3 0.7-3.1 0.9-3.9-0.7 -0.6-1.2 0.4-2.6 1.1-3.5 0.4-0.6 0.8-1.3 0.5-2 -0.1-0.2-0.3-0.5-0.4-0.7C152.7 75.9 155.4 73.5 157.3 75z"/><path style="fill:none;  stroke: rgba(0,0,0,.18);  stroke-width: 1.8;  stroke-miterlimit: 10" d="M161 74.8c-0.5 0.3-1 0.8-0.9 1.3 0 0.3 0.2 0.6 0.5 0.9 1.2 1.2 4.6 2.3 4.9-0.4C165.6 74.4 162.4 73.9 161 74.8z"/><path style="fill:none;  stroke: rgba(0,0,0,.18);  stroke-width: 1.8;  stroke-miterlimit: 10" d="M166.4 79.2c-0.8 0-1.7 0.5-1.9 1.3 0 0.1-0.1 0.3 0 0.4 0 0.2 0.2 0.4 0.4 0.6 0.6 0.7 1.4 1.1 2.3 1.3 0.5 0.1 1.1 0.1 1.6-0.1 0.5-0.2 0.9-0.8 0.8-1.3C169.5 79.9 167.7 79.2 166.4 79.2z"/><path style="fill:none;  stroke: rgba(0,0,0,.18);  stroke-width: 1.8;  stroke-miterlimit: 10" d="M166.2 83.6c-0.6-0.4-1.3-0.7-2.1-0.7 -0.7 0.1-1.4 0.6-1.5 1.4 -0.1 0.6 0.3 1.2 0.7 1.7 0.5 0.6 1.2 1.2 1.9 1.5 0.8 0.2 1.8-0.1 2.1-0.9C168 85.3 167.4 84.4 166.2 83.6z"/><path style="fill:none;  stroke: rgba(0,0,0,.18);  stroke-width: 1.8;  stroke-miterlimit: 10" d="M159.7 85.4c-0.5-0.1-1.1-0.1-1.5 0.3 -1.6 1.4 0.9 3.4 2.2 3.7 1.5 0.3 2.4-1 1.7-2.4C161.6 86.2 160.6 85.6 159.7 85.4z"/><path style="fill:none;  stroke: rgba(0,0,0,.18);  stroke-width: 1.8;  stroke-miterlimit: 10" d="M137.4 56.7c-0.3-1.3 1-2.7 2.4-2.5 0.3 0.1 0.6 0.2 0.9 0.3 1 0.4 2 0.8 3 1.2 0.8 0.3 1.7 0.7 2.4 1.2 0.7 0.4 1.3 1.1 1.4 1.9 0.1 1.1-0.7 2-1.4 2.8 -0.7 0.7-1.4 1.5-2.1 2.2 -0.6 0.7-1.3 1.4-2.2 1.6 -0.9 0.3-2-0.1-2.3-1 -0.2-0.8 0.3-1.6 0.5-2.5C140.5 59.5 137.8 58.8 137.4 56.7z"/><path style="fill:none;  stroke: rgba(0,0,0,.18);  stroke-width: 1.8;  stroke-miterlimit: 10" d="M143.5 54.1c0.1 0.2 0.2 0.4 0.4 0.6 0.2 0.2 0.4 0.2 0.7 0.3 0.8 0.1 1.6-0.1 2.2-0.6 0.2-0.1 0.3-0.3 0.5-0.4 0.1-0.1 0.2-0.2 0.3-0.4 0.7-1.2-0.6-2.5-1.8-2.3C144.5 51.4 143.1 52.7 143.5 54.1z"/><path style="fill:none;  stroke: rgba(0,0,0,.18);  stroke-width: 1.8;  stroke-miterlimit: 10" d="M148.6 55.8c-0.3 0.4-0.5 1.1-0.2 1.5 0.1 0.1 0.2 0.2 0.4 0.3 0.6 0.4 1.3 0.6 2.1 0.6s1.4-0.4 1.8-1c0.6-1-0.1-2.2-1.1-2.6C150.5 54.2 149.2 55 148.6 55.8z"/><path style="fill:none;  stroke: rgba(0,0,0,.18);  stroke-width: 1.8;  stroke-miterlimit: 10" d="M151.2 59.3c-0.5-0.1-1-0.1-1.5 0 -0.5 0.1-0.9 0.5-1.1 0.9 -0.2 0.6 0 1.3 0.4 1.7 0.4 0.5 1 0.7 1.7 0.8 1 0.2 2.7-0.1 2.7-1.5C153.3 60.2 152.2 59.5 151.2 59.3z"/><path style="fill:none;  stroke: rgba(0,0,0,.18);  stroke-width: 1.8;  stroke-miterlimit: 10" d="M149.6 65.9c-0.3 0.3-0.7 0.4-1.1 0.5 -1 0.1-2.1-0.3-2.7-1 -0.6-0.7-0.7-2 0.3-2.4C147.3 62.5 151.4 64.3 149.6 65.9z"/><path style="fill:none;  stroke: rgba(0,0,0,.18);  stroke-width: 1.8;  stroke-miterlimit: 10" d="M117.8 73.3c0.8 0.2 1.6 0.7 2.4 1 1 0.4 2.1 0.6 3 1.1 0.9 0.5 1.7 1.7 1.4 2.7 -0.1 0.4-0.3 0.7-0.6 1 -0.8 1.1-1.7 2.2-2.5 3.3 -0.9 1.2-2.4 2.2-3.8 1.1 -1.1-0.8-0.8-2.5-0.6-3.6 0.1-0.7 0.1-1.6-0.4-2 -0.2-0.2-0.5-0.3-0.7-0.4C114 76.2 115.4 72.8 117.8 73.3z"/><path style="fill:none;  stroke: rgba(0,0,0,.18);  stroke-width: 1.8;  stroke-miterlimit: 10" d="M121 71.4c-0.3 0.5-0.5 1.1-0.2 1.6 0.2 0.3 0.5 0.5 0.8 0.6 1.6 0.6 5.2 0 4.2-2.5C125 69.1 121.9 70.1 121 71.4z"/><path style="fill:none;  stroke: rgba(0,0,0,.18);  stroke-width: 1.8;  stroke-miterlimit: 10" d="M127.7 73.1c-0.7 0.4-1.3 1.2-1.1 2 0 0.1 0.1 0.3 0.2 0.4 0.1 0.2 0.4 0.3 0.6 0.4 0.8 0.3 1.8 0.4 2.7 0.1 0.5-0.1 1.1-0.4 1.4-0.8 0.3-0.4 0.5-1.1 0.2-1.5C130.8 72.3 128.9 72.4 127.7 73.1z"/><path style="fill:none;  stroke: rgba(0,0,0,.18);  stroke-width: 1.8;  stroke-miterlimit: 10" d="M129.6 77.1c-0.7-0.1-1.5-0.1-2.1 0.3 -0.6 0.4-1 1.2-0.8 1.9 0.2 0.6 0.8 1 1.4 1.2 0.7 0.3 1.6 0.6 2.4 0.4 0.8-0.2 1.6-0.9 1.5-1.7C131.8 77.8 130.9 77.3 129.6 77.1z"/><path style="fill:none;  stroke: rgba(0,0,0,.18);  stroke-width: 1.8;  stroke-miterlimit: 10" d="M124.5 81.6c-0.5 0.1-1 0.4-1.3 0.9 -0.8 1.9 2.3 2.6 3.6 2.3 1.5-0.4 1.7-2 0.5-2.9C126.5 81.4 125.3 81.4 124.5 81.6z"/><path style="fill:none;  stroke: rgba(0,0,0,.18);  stroke-width: 1.8;  stroke-miterlimit: 10" d="M93.2 70.6c-0.8-1.1-0.3-2.9 1-3.3 0.3-0.1 0.6-0.1 0.9-0.1 1.1-0.1 2.2-0.2 3.3-0.2 0.9-0.1 1.8-0.1 2.7 0 0.8 0.1 1.6 0.4 2.1 1.1 0.6 0.9 0.3 2.1 0 3.1 -0.3 1-0.6 2-0.9 3 -0.3 0.9-0.6 1.8-1.3 2.4 -0.7 0.6-1.9 0.8-2.5 0.1 -0.6-0.6-0.5-1.6-0.6-2.5C97.3 71.6 94.5 72.2 93.2 70.6z"/><path style="fill:none;  stroke: rgba(0,0,0,.18);  stroke-width: 1.8;  stroke-miterlimit: 10" d="M97.6 65.5c0.2 0.2 0.4 0.3 0.6 0.4 0.2 0.1 0.5 0 0.7-0.1 0.7-0.3 1.4-0.8 1.7-1.6 0.1-0.2 0.2-0.4 0.2-0.6 0.1-0.2 0.1-0.3 0.1-0.5 0.1-1.4-1.7-2-2.7-1.3C97.2 62.6 96.6 64.4 97.6 65.5z"/><path style="fill:none;  stroke: rgba(0,0,0,.18);  stroke-width: 1.8;  stroke-miterlimit: 10" d="M102.9 64.7c-0.1 0.5 0 1.2 0.5 1.4 0.1 0.1 0.3 0.1 0.5 0.1 0.7 0.1 1.5 0 2.1-0.4 0.6-0.4 1.1-1 1.1-1.7 0.1-1.1-1-2-2.1-1.8C103.9 62.4 103 63.7 102.9 64.7z"/><path style="fill:none;  stroke: rgba(0,0,0,.18);  stroke-width: 1.8;  stroke-miterlimit: 10" d="M106.7 66.7c-0.5 0.1-0.9 0.4-1.3 0.7 -0.4 0.3-0.6 0.8-0.6 1.3 0.1 0.6 0.6 1.2 1.1 1.4 0.6 0.2 1.2 0.2 1.8 0 1-0.3 2.4-1.3 1.7-2.5C109 66.5 107.7 66.4 106.7 66.7z"/><path style="fill:none;  stroke: rgba(0,0,0,.18);  stroke-width: 1.8;  stroke-miterlimit: 10" d="M108.3 73.3c-0.2 0.4-0.5 0.7-0.8 0.9 -0.8 0.5-2 0.7-2.9 0.3 -0.9-0.3-1.5-1.5-0.8-2.3C104.7 71.2 109.2 71.1 108.3 73.3z"/><path style="fill:none;  stroke: rgba(0,0,0,.18);  stroke-width: 1.8;  stroke-miterlimit: 10" d="M83.1 94.2c0.8-0.2 1.7-0.1 2.6-0.2 1.1-0.1 2.2-0.4 3.2-0.3 1.1 0.1 2.3 0.7 2.4 1.8 0.1 0.4 0 0.7-0.1 1.1 -0.3 1.4-0.5 2.7-0.8 4.1 -0.3 1.5-1.1 3-2.9 2.7 -1.3-0.2-1.8-1.9-2.1-3 -0.2-0.7-0.6-1.5-1.3-1.6 -0.3-0.1-0.5 0-0.8-0.1C81 98.5 80.7 94.9 83.1 94.2z"/><path style="fill:none;  stroke: rgba(0,0,0,.18);  stroke-width: 1.8;  stroke-miterlimit: 10" d="M85.1 91.1c-0.1 0.6 0 1.2 0.5 1.5 0.3 0.2 0.6 0.2 1 0.1 1.7-0.2 4.6-2.3 2.6-4.1C87.7 87.2 85.3 89.5 85.1 91.1z"/><path style="fill:none;  stroke: rgba(0,0,0,.18);  stroke-width: 1.8;  stroke-miterlimit: 10" d="M91.9 89.5c-0.5 0.7-0.6 1.6-0.1 2.3 0.1 0.1 0.2 0.2 0.3 0.3 0.2 0.1 0.5 0.1 0.7 0.1 0.9-0.1 1.8-0.5 2.4-1.1 0.4-0.4 0.8-0.8 0.9-1.4 0.1-0.5-0.1-1.2-0.5-1.5C94.3 87.5 92.7 88.4 91.9 89.5z"/><path style="fill:none;  stroke: rgba(0,0,0,.18);  stroke-width: 1.8;  stroke-miterlimit: 10" d="M95.3 92.3c-0.7 0.2-1.4 0.6-1.8 1.3 -0.4 0.6-0.4 1.5 0.2 2 0.5 0.4 1.2 0.5 1.8 0.5 0.8 0 1.7-0.2 2.3-0.7 0.6-0.5 1-1.5 0.6-2.2C97.7 91.9 96.6 91.9 95.3 92.3z"/><path style="fill:none;  stroke: rgba(0,0,0,.18);  stroke-width: 1.8;  stroke-miterlimit: 10" d="M92.7 98.6C92.3 99 92 99.5 92 100c0.1 2.1 3.2 1.3 4.2 0.5 1.2-1 0.6-2.6-0.9-2.8C94.5 97.5 93.4 98 92.7 98.6z"/><path style="fill:none;  stroke: rgba(0,0,0,.18);  stroke-width: 1.8;  stroke-miterlimit: 10" d="M59 92.3c-0.7-1.1 0-2.9 1.3-3.2 0.3-0.1 0.6-0.1 0.9-0.1 1.1 0 2.2 0 3.3 0 0.9 0 1.8 0 2.7 0.2 0.8 0.2 1.6 0.5 2 1.2 0.5 0.9 0.1 2.1-0.3 3.1 -0.4 1-0.8 1.9-1.2 2.9 -0.4 0.9-0.7 1.8-1.5 2.3 -0.7 0.6-1.9 0.7-2.5-0.1 -0.5-0.7-0.3-1.6-0.4-2.5C62.9 93.7 60.2 94 59 92.3z"/><path style="fill:none;  stroke: rgba(0,0,0,.18);  stroke-width: 1.8;  stroke-miterlimit: 10" d="M63.7 87.6c0.1 0.2 0.3 0.3 0.5 0.4 0.2 0.1 0.5 0 0.7 0 0.8-0.2 1.4-0.7 1.8-1.4 0.1-0.2 0.2-0.4 0.3-0.6 0.1-0.2 0.1-0.3 0.2-0.5 0.2-1.4-1.5-2.1-2.5-1.5C63.7 84.7 62.9 86.5 63.7 87.6z"/><path style="fill:none;  stroke: rgba(0,0,0,.18);  stroke-width: 1.8;  stroke-miterlimit: 10" d="M69.1 87.3c-0.1 0.5-0.1 1.2 0.4 1.4 0.1 0.1 0.3 0.1 0.5 0.1 0.7 0.1 1.5 0.1 2.1-0.2 0.7-0.3 1.2-0.9 1.3-1.6 0.2-1.1-0.9-2-2-2C70.3 85.1 69.3 86.3 69.1 87.3z"/><path style="fill:none;  stroke: rgba(0,0,0,.18);  stroke-width: 1.8;  stroke-miterlimit: 10" d="M72.8 89.6c-0.5 0.1-1 0.3-1.4 0.6 -0.4 0.3-0.7 0.8-0.7 1.3 0 0.6 0.5 1.2 1 1.5 0.6 0.3 1.2 0.3 1.8 0.1 1-0.2 2.5-1.1 1.9-2.4C75 89.6 73.8 89.4 72.8 89.6z"/><path style="fill:none;  stroke: rgba(0,0,0,.18);  stroke-width: 1.8;  stroke-miterlimit: 10" d="M73.8 96.3c-0.2 0.4-0.5 0.7-0.9 0.8 -0.9 0.5-2 0.5-2.9 0.1 -0.9-0.4-1.4-1.6-0.6-2.3C70.4 94 74.9 94.2 73.8 96.3z"/><path style="fill:none;  stroke: rgba(0,0,0,.18);  stroke-width: 1.8;  stroke-miterlimit: 10" d="M46.8 115c0.9-0.2 1.7 0 2.6 0.1 1.1 0 2.2-0.2 3.3-0.1 1.1 0.2 2.2 0.9 2.3 2 0 0.4-0.1 0.7-0.2 1.1 -0.4 1.3-0.7 2.7-1.1 4 -0.4 1.4-1.4 2.9-3.1 2.4 -1.3-0.4-1.6-2-1.8-3.1 -0.1-0.7-0.4-1.5-1.1-1.7 -0.3-0.1-0.5-0.1-0.8-0.1C44.4 119 44.4 115.4 46.8 115z"/><path style="fill:none;  stroke: rgba(0,0,0,.18);  stroke-width: 1.8;  stroke-miterlimit: 10" d="M49.1 112c-0.1 0.6-0.1 1.2 0.4 1.6 0.3 0.2 0.6 0.2 1 0.2 1.7 0 4.8-1.9 3-3.9C52 108.4 49.5 110.4 49.1 112z"/><path style="fill:none;  stroke: rgba(0,0,0,.18);  stroke-width: 1.8;  stroke-miterlimit: 10" d="M56 111c-0.5 0.6-0.7 1.6-0.3 2.3 0.1 0.1 0.2 0.3 0.3 0.3 0.2 0.1 0.4 0.1 0.7 0.1 0.9 0 1.8-0.3 2.5-0.9 0.4-0.3 0.8-0.7 1-1.3 0.2-0.5 0-1.2-0.4-1.5C58.6 109.2 56.9 110 56 111z"/><path style="fill:none;  stroke: rgba(0,0,0,.18);  stroke-width: 1.8;  stroke-miterlimit: 10" d="M59.2 114.1c-0.7 0.2-1.4 0.5-1.9 1.1 -0.4 0.6-0.5 1.5 0 2.1 0.4 0.5 1.1 0.6 1.8 0.6 0.8 0 1.7 0 2.4-0.5 0.7-0.4 1.1-1.4 0.8-2.1C61.6 114 60.5 113.8 59.2 114.1z"/><path style="fill:none;  stroke: rgba(0,0,0,.18);  stroke-width: 1.8;  stroke-miterlimit: 10" d="M56.1 120.2c-0.4 0.3-0.8 0.8-0.8 1.3 -0.1 2.1 3.1 1.6 4.2 0.8 1.3-0.9 0.9-2.5-0.6-2.9C57.9 119.3 56.8 119.7 56.1 120.2z"/><path style="fill:none;  stroke: rgba(0,0,0,.18);  stroke-width: 1.8;  stroke-miterlimit: 10" d="M22.3 106.6c-0.5-1.2 0.5-2.9 1.8-2.9 0.3 0 0.6 0 0.9 0.1 1.1 0.2 2.1 0.4 3.2 0.6 0.9 0.2 1.8 0.3 2.6 0.7 0.7 0.3 1.5 0.8 1.7 1.6 0.3 1-0.3 2.1-0.8 3 -0.6 0.9-1.1 1.7-1.7 2.6 -0.5 0.8-1 1.6-1.9 2 -0.8 0.4-2 0.3-2.4-0.5 -0.4-0.8 0-1.7 0-2.5C25.9 108.6 23.1 108.5 22.3 106.6z"/><path style="fill:none;  stroke: rgba(0,0,0,.18);  stroke-width: 1.8;  stroke-miterlimit: 10" d="M27.8 102.8c0.1 0.2 0.3 0.4 0.5 0.5 0.2 0.1 0.5 0.1 0.7 0.1 0.8-0.1 1.5-0.5 2.1-1.1 0.1-0.2 0.3-0.3 0.4-0.5 0.1-0.1 0.2-0.3 0.2-0.4 0.5-1.3-1.1-2.4-2.2-1.9C28.2 99.9 27.1 101.5 27.8 102.8z"/><path style="fill:none;  stroke: rgba(0,0,0,.18);  stroke-width: 1.8;  stroke-miterlimit: 10" d="M33.1 103.4c-0.2 0.5-0.3 1.1 0.1 1.5 0.1 0.1 0.3 0.2 0.4 0.2 0.7 0.2 1.4 0.3 2.1 0.1 0.7-0.2 1.3-0.7 1.6-1.4 0.4-1.1-0.5-2.2-1.6-2.3C34.7 101.5 33.5 102.5 33.1 103.4z"/><path style="fill:none;  stroke: rgba(0,0,0,.18);  stroke-width: 1.8;  stroke-miterlimit: 10" d="M36.3 106.4c-0.5 0-1 0.1-1.4 0.3 -0.4 0.2-0.8 0.6-0.9 1.1 -0.1 0.6 0.2 1.3 0.7 1.6 0.5 0.4 1.2 0.5 1.8 0.5 1 0 2.7-0.7 2.3-2C38.5 106.8 37.3 106.3 36.3 106.4z"/><path style="fill:none;  stroke: rgba(0,0,0,.18);  stroke-width: 1.8;  stroke-miterlimit: 10" d="M36.1 113.2c-0.3 0.3-0.6 0.5-1 0.7 -0.9 0.3-2.1 0.2-2.9-0.4 -0.8-0.6-1.1-1.8-0.2-2.4C33.2 110.2 37.6 111.3 36.1 113.2z"/><path style="fill:none;  stroke: rgba(0,0,0,.18);  stroke-width: 1.8;  stroke-miterlimit: 10" d="M6.3 126.7c0.9 0 1.7 0.3 2.5 0.5 1.1 0.2 2.2 0.2 3.2 0.5 1 0.3 2 1.3 1.9 2.4 0 0.4-0.2 0.7-0.4 1.1 -0.6 1.2-1.2 2.5-1.8 3.7 -0.6 1.3-1.9 2.6-3.5 1.8 -1.2-0.6-1.2-2.3-1.3-3.4 0-0.7-0.2-1.6-0.8-1.9 -0.2-0.1-0.5-0.2-0.8-0.3C3.2 130.3 3.9 126.7 6.3 126.7z"/><path style="fill:none;  stroke: rgba(0,0,0,.18);  stroke-width: 1.8;  stroke-miterlimit: 10" d="M9.1 124.3c-0.2 0.5-0.3 1.2 0.1 1.6 0.2 0.2 0.6 0.3 0.9 0.4 1.7 0.3 5.1-1 3.6-3.3C12.5 121.2 9.7 122.8 9.1 124.3z"/><path style="fill:none;  stroke: rgba(0,0,0,.18);  stroke-width: 1.8;  stroke-miterlimit: 10" d="M16 124.5c-0.6 0.5-1 1.4-0.7 2.2 0.1 0.1 0.1 0.3 0.2 0.4 0.2 0.2 0.4 0.2 0.6 0.2 0.9 0.1 1.8 0 2.6-0.4 0.5-0.2 1-0.6 1.2-1.1 0.3-0.5 0.2-1.1-0.1-1.6C18.9 123.2 17.1 123.7 16 124.5z"/><path style="fill:none;  stroke: rgba(0,0,0,.18);  stroke-width: 1.8;  stroke-miterlimit: 10" d="M18.6 128.1c-0.7 0-1.5 0.2-2 0.7 -0.5 0.5-0.8 1.4-0.4 2 0.3 0.6 1 0.8 1.6 0.9 0.8 0.2 1.7 0.3 2.4 0 0.8-0.3 1.3-1.2 1.1-2C21 128.4 20 128 18.6 128.1z"/><path style="fill:none;  stroke: rgba(0,0,0,.18);  stroke-width: 1.8;  stroke-miterlimit: 10" d="M14.5 133.5c-0.5 0.2-0.9 0.6-1 1.2 -0.4 2 2.8 2.1 4 1.5 1.4-0.7 1.3-2.3-0.1-2.9C16.5 132.9 15.3 133.1 14.5 133.5z"/></svg>